<?xml version="1.0" standalone="no"?>
<!DOCTYPE svg PUBLIC "-//W3C//DTD SVG 20010904//EN"
 "http://www.w3.org/TR/2001/REC-SVG-20010904/DTD/svg10.dtd">
<svg version="1.0" xmlns="http://www.w3.org/2000/svg"
 width="340.000000pt" height="340.000000pt" viewBox="0 0 340.000000 340.000000"
 preserveAspectRatio="xMidYMid meet">
<metadata>
Created by potrace 1.11, written by Peter Selinger 2001-2013
</metadata>
<g transform="translate(0.000000,340.000000) scale(0.100000,-0.100000)"
fill="#000000" stroke="none">
<path d="M1560 3393 c-217 -34 -414 -140 -606 -329 -44 -43 -107 -113 -140
-154 -32 -41 -62 -77 -65 -80 -23 -20 -134 -217 -160 -284 -105 -271 -109
-485 -14 -662 l33 -62 -38 0 c-100 -2 -150 -86 -154 -257 -3 -156 115 -407
227 -482 27 -18 52 -32 55 -32 4 1 26 1 50 0 32 -1 42 -5 42 -18 0 -9 18 -54
40 -100 51 -104 145 -203 249 -260 l72 -40 -61 -17 c-34 -10 -64 -24 -67 -32
-3 -8 -10 -14 -15 -14 -6 0 -52 -19 -102 -43 -139 -66 -255 -167 -446 -387
-36 -41 -77 -87 -93 -103 -15 -16 -27 -30 -27 -33 0 -2 626 -4 1391 -4 l1391
0 -32 38 c-283 325 -402 431 -566 503 -44 18 -87 42 -96 51 -10 10 -28 18 -40
18 -13 1 -33 6 -46 14 -27 14 -24 17 48 56 57 30 61 34 126 99 62 62 113 142
140 219 18 51 20 52 58 52 91 0 173 75 251 231 70 138 92 268 66 389 -21 102
-71 155 -142 153 l-38 -2 34 67 c19 37 41 94 50 127 15 57 21 195 11 261 -15
100 -75 284 -119 364 -35 66 -128 207 -154 235 -10 11 -30 36 -45 55 -72 95
-226 236 -338 309 -47 31 -87 56 -90 56 -3 1 -24 11 -47 23 -23 12 -81 33
-130 48 -78 23 -107 26 -263 29 -96 1 -186 0 -200 -2z"/>
</g>
</svg>
